<?xml version="1.0" encoding="utf-8"?>
<!-- Generator: Adobe Illustrator 16.0.0, SVG Export Plug-In . SVG Version: 6.00 Build 0)  -->
<!DOCTYPE svg PUBLIC "-//W3C//DTD SVG 1.1//EN" "http://www.w3.org/Graphics/SVG/1.1/DTD/svg11.dtd">
<svg version="1.1" id="Calque_2" xmlns="http://www.w3.org/2000/svg" xmlns:xlink="http://www.w3.org/1999/xlink" x="0px" y="0px"
	 width="600px" height="600px" viewBox="0 0 600 600" enable-background="new 0 0 600 600" xml:space="preserve">
<g>
	<defs>
		<path id="SVGID_1_" d="M600,73c0-39.212-31.788-71-71-71H72C32.788,2,1,33.788,1,73v457c0,39.212,31.788,71,71,71h457
			c39.212,0,71-31.788,71-71V73z"/>
	</defs>
	<clipPath id="SVGID_2_">
		<use xlink:href="#SVGID_1_"  overflow="visible"/>
	</clipPath>
	<path display="none" clip-path="url(#SVGID_2_)" fill="#FE6A0A" d="M1068.289,290.178c0,246.527-199.852,446.378-446.373,446.378
		c-246.528,0-446.378-199.851-446.378-446.378c0-246.524,199.85-446.374,446.378-446.374
		C868.438-156.196,1068.289,43.654,1068.289,290.178z"/>
	<path display="none" clip-path="url(#SVGID_2_)" fill="#324654" d="M1013.352,617.448c0,9.005-7.3,16.306-16.305,16.306H175.885
		c-9.006,0-16.305-7.301-16.305-16.306V14.753c0-9.006,7.298-16.305,16.305-16.305h821.162c9.005,0,16.305,7.298,16.305,16.305
		V617.448z"/>
	<path clip-path="url(#SVGID_2_)" fill="#E1E1E1" d="M602.374,588.525c0,9.947-7.298,18.012-16.307,18.012H14.908
		c-9.005,0-16.305-8.064-16.305-18.012V15.294c0-9.948,7.3-18.014,16.305-18.014h571.16c9.009,0,16.307,8.066,16.307,18.014V588.525
		z"/>
	<g clip-path="url(#SVGID_2_)">
		
			<line fill="none" stroke="#595959" stroke-width="35.9357" stroke-linecap="round" stroke-linejoin="round" stroke-miterlimit="10" x1="308.065" y1="492.4" x2="116.698" y2="492.4"/>
		
			<line fill="none" stroke="#595959" stroke-width="35.9357" stroke-linecap="round" stroke-linejoin="round" stroke-miterlimit="10" x1="485.083" y1="416.387" x2="118.698" y2="416.387"/>
		
			<line fill="none" stroke="#595959" stroke-width="35.9357" stroke-linecap="round" stroke-linejoin="round" stroke-miterlimit="10" x1="485.083" y1="340.376" x2="116.698" y2="340.376"/>
		
			<line fill="none" stroke="#595959" stroke-width="35.9357" stroke-linecap="round" stroke-linejoin="round" stroke-miterlimit="10" x1="485.083" y1="264.366" x2="116.698" y2="264.366"/>
		
			<line fill="none" stroke="#595959" stroke-width="35.9357" stroke-linecap="round" stroke-linejoin="round" stroke-miterlimit="10" x1="485.083" y1="188.353" x2="116.698" y2="188.353"/>
		
			<line fill="none" stroke="#595959" stroke-width="35.9357" stroke-linecap="round" stroke-linejoin="round" stroke-miterlimit="10" x1="485.083" y1="112.342" x2="196.437" y2="112.342"/>
	</g>
	
		<path clip-path="url(#SVGID_2_)" fill="none" stroke="#E1E1E1" stroke-width="48" stroke-linecap="round" stroke-linejoin="round" stroke-miterlimit="10" d="
		M495.419,502.028c-0.317-1.78-1.266-2.804-1.266-2.804l-91.85-141.879l-10.978-16.953l-24.338-37.594
		c0.347-0.261,0.685-0.515,1.029-0.769c0.076-0.058,0.151-0.112,0.227-0.171c0.288-0.215,0.568-0.429,0.854-0.644
		c0.483-0.36,0.949-0.714,1.421-1.069c0.656-0.495,1.305-0.987,1.942-1.469c0.585-0.447,1.168-0.888,1.737-1.321
		c0.333-0.256,0.66-0.506,0.984-0.757c0.563-0.429,1.114-0.854,1.658-1.271c0.11-0.085,0.226-0.172,0.331-0.255
		c0.097-0.076,0.193-0.151,0.291-0.222c0.219-0.171,0.429-0.333,0.65-0.502c0.115-0.089,0.227-0.181,0.347-0.271
		c0.543-0.422,1.083-0.839,1.609-1.251c0.187-0.146,0.372-0.291,0.559-0.437c0.509-0.396,1.013-0.791,1.503-1.177
		c0.009-0.006,0.017-0.012,0.021-0.016c1.252-0.983,2.452-1.934,3.597-2.849c0.406-0.325,1.192-0.958,1.192-0.958
		c0.1-0.08,0.194-0.157,0.293-0.238c0.677-0.543,1.337-1.075,1.976-1.597c0.302-0.248,0.593-0.484,0.887-0.726
		c0.432-0.354,0.86-0.703,1.274-1.044c0.312-0.26,0.613-0.508,0.917-0.758c0.376-0.313,0.747-0.622,1.109-0.927
		c0.3-0.25,0.6-0.498,0.89-0.742c0.355-0.299,0.7-0.591,1.044-0.88c0.271-0.227,0.541-0.457,0.801-0.678
		c0.37-0.313,0.725-0.622,1.081-0.925c0.217-0.187,0.441-0.375,0.652-0.559c0.528-0.453,1.038-0.896,1.537-1.331
		c0.227-0.199,0.443-0.39,0.667-0.585c0.28-0.25,0.567-0.5,0.839-0.739c0.241-0.213,0.472-0.421,0.705-0.626
		c0.238-0.213,0.476-0.425,0.705-0.63c0.234-0.208,0.461-0.412,0.687-0.615c0.214-0.193,0.425-0.382,0.63-0.569
		c0.229-0.205,0.453-0.413,0.672-0.609c0.176-0.161,0.345-0.315,0.515-0.472c2.8-2.562,4.998-4.659,6.947-6.475
		c8.172-7.613,4.49-13.824,4.49-13.824l-3.765-6.284c0.018-0.03,0.04-0.059,0.063-0.087l0.187,0.248l-0.138-0.309
		c0.063-0.079,0.128-0.167,0.19-0.246c0.283-0.363,0.565-0.729,0.848-1.101c0.12-0.159,0.242-0.311,0.359-0.469
		c0.265-0.345,0.524-0.689,0.785-1.034c6.065-8.048,12.014-16.969,11.448-17.78c-0.63-0.902-13.365,2.239-23.857,5.598l-0.452-0.65
		l-0.073,0.05c-0.029,0.021,0.12,0.373,0.083,0.385l-5.338-6.589c0,0-4.498-5.521-14.475-0.496
		c-5.965,3.001-14.032,6.845-29.253,15.968c0,0-0.561,0.364-0.85,0.537c-0.226,0.136-0.454,0.291-0.683,0.429
		c-0.311,0.187-0.616,0.382-0.933,0.571c-0.481,0.291-0.971,0.595-1.461,0.898c-0.397,0.242-0.798,0.488-1.207,0.736
		c-0.615,0.378-1.232,0.762-1.869,1.154c-0.39,0.243-0.796,0.493-1.199,0.743c-0.158,0.098-0.318,0.201-0.479,0.299
		c-0.285,0.176-0.577,0.361-0.866,0.541c-0.328,0.205-0.658,0.408-0.988,0.62c-0.084,0.051-0.168,0.104-0.255,0.156
		c-0.069,0.044-0.144,0.091-0.215,0.138c-0.429,0.268-0.867,0.544-1.303,0.821c-0.355,0.224-0.707,0.443-1.068,0.673
		c-0.884,0.563-1.786,1.133-2.708,1.723c-0.157,0.1-0.317,0.206-0.472,0.305c-0.677,0.433-1.357,0.868-2.052,1.314
		c-0.936,0.218-1.796,0.561-2.571,1.024c0.008-0.004,0.021-0.008,0.028-0.012c-0.01,0.006-0.021,0.008-0.032,0.014
		c0.374-0.183,1.213-0.559,2.424-0.928c-0.032,0.02-0.066,0.042-0.1,0.063c-0.066,0.041-0.136,0.085-0.198,0.128
		c-0.285,0.187-0.579,0.374-0.87,0.561c-0.116,0.075-0.233,0.15-0.35,0.226c-0.006,0.004-0.012,0.006-0.018,0.01
		c-0.253,0.16-0.254,0.329-0.504,0.494L332,251.837v-0.004c0-0.008-0.223-0.014-0.207-0.026c-0.023,0.012-0.173,0.026-0.181,0.03
		c0.063-0.044,0.078-0.067,0.144-0.109c-0.032,0.016-0.085,0.026-0.111,0.039c0.026-0.016,0.04-0.024,0.064-0.041
		c-0.13,0.065-0.203,0.102-0.218,0.107l-26.188-35.01l-12.093-16.17L191.819,65.056c0,0-3.638-7.292-15.735,1.131
		c-12.097,8.426-31.759,22.114-31.759,22.114s-5.422,4.578,7.27,27.179c9.856,17.553,76.049,139.101,105.13,191.232
		c-0.17,0.128-0.341,3.287-0.512,3.287h-0.002c-0.041,0-0.077-2.846-0.118-2.815c-0.044,0.034-0.089-1.383-0.136-1.349
		c-1.513,1.145-3.017,1.563-4.508,2.71c-0.069,0.053-0.138-0.255-0.207-0.202c-1.504,1.158-2.991,2.136-4.452,3.296
		c-0.018,0.015-0.037-0.063-0.057-0.049c-1.402,1.113-2.782,2.177-4.137,3.282c-0.228,0.187-0.453,0.348-0.678,0.534
		c-1.333,1.091-2.65,2.169-3.921,3.25c-0.128,0.126-0.301,0.289-0.492,0.476c-0.046,0.046-0.087,0.08-0.136,0.125
		c-0.181,0.179-0.392,0.382-0.622,0.605c-0.098,0.092-0.197,0.187-0.301,0.288c-0.355,0.344-0.762,0.737-1.207,1.166
		c-0.083,0.08-0.162,0.156-0.248,0.238c-0.37,0.359-0.766,0.744-1.19,1.151c-0.105,0.105-0.209,0.206-0.321,0.312
		c-0.8,0.78-1.69,1.644-2.657,2.591c-0.053,0.053-0.11,0.105-0.163,0.158c-0.632,0.617-1.296,1.271-1.993,1.956
		c-0.022,0.022-0.046,0.048-0.071,0.072c-0.284,0.277-0.552,0.543-0.849,0.832c-0.085,0.086-0.169,0.165-0.254,0.252
		c-0.345,0.327-0.674,0.65-1.01,0.974c-0.226,0.219-0.458,0.441-0.677,0.658c-1.721,1.679-3.308,3.261-4.754,4.732
		c-0.042,0.045-0.083,0.085-0.125,0.13c-0.449,0.455-0.882,0.897-1.301,1.328c-0.039,0.041-0.077,0.081-0.116,0.122
		c-0.417,0.429-0.819,0.846-1.205,1.247c-0.036,0.041-0.073,0.077-0.107,0.116c-0.376,0.391-0.734,0.769-1.079,1.132
		c-0.055,0.055-0.105,0.111-0.158,0.165c-0.305,0.327-0.602,0.642-0.884,0.944c-0.022,0.024-0.049,0.051-0.069,0.075
		c-3.544,3.665-7.321,7.656-11.202,11.883c-0.081,0.089-0.164,0.178-0.244,0.266c-1.268,1.381-2.542,2.781-3.824,4.21
		c-0.311,0.332-0.614,0.658-0.906,0.975c-0.179,0.193-0.352,0.378-0.524,0.566c-0.089,0.098-0.181,0.196-0.268,0.289
		c-4.903,5.303-7.607,8.381-11.374,12.314c-0.03,0.035-0.061,0.065-0.091,0.098c-0.193,0.203-0.39,0.404-0.589,0.611
		c-0.063,0.067-0.13,0.134-0.195,0.201c-0.183,0.191-0.368,0.385-0.556,0.575c-0.061,0.063-0.122,0.128-0.183,0.191
		c-0.238,0.239-0.479,0.487-0.725,0.739c-0.122,0.122-0.246,0.25-0.368,0.376c-0.128,0.128-0.252,0.254-0.38,0.384
		c-0.164,0.164-0.327,0.332-0.496,0.5c-0.089,0.09-0.175,0.177-0.266,0.266c-0.195,0.2-0.392,0.396-0.599,0.604
		c-0.022,0.022-0.049,0.047-0.071,0.071c-3.115,3.114-7.121,7.017-12.843,12.476c-12.252-12.443-35.498-36.106-44.791-45.867
		c-0.022-0.024-0.041-0.045-0.063-0.065c-0.364-0.383-0.699-0.739-1.02-1.077c-0.069-0.075-0.141-0.148-0.209-0.221
		c-0.335-0.356-0.648-0.688-0.924-0.986c-9.572-10.271-18.66-3.338-18.66-3.338l-17.032,15.492l42.732,71.137
		c-0.016,0.017-0.03,0.031-0.046,0.045c0,0,0.034-0.026,0.05-0.036l0.262,0.44c0.037,0.065,0.069,0.128,0.061,0.133
		c0,0,0.01-0.007,0.014-0.011l0.634,1.056c-4.891,4.58-10.238,9.578-16.073,15.026c-1.512,1.411-3.042,2.837-4.606,4.299
		c0.174-0.092,0.345-0.178,0.522-0.263c-0.139,0.13-0.274,0.257-0.417,0.387c9.281-4.659,17.636-8.959,25.279-12.811l53.855,66.604
		c0,0,12.283-4.954,19.614-10.058c7.333-5.105,3.212-17.979,3.212-17.979l-29.27-62.636c29.863-15.149,34.619-17.513,50.717-24.23
		c0.518-0.215,1.081-0.449,1.666-0.698c0.01-0.004,0.024-0.008,0.037-0.014c0.642-0.272,1.316-0.562,2.022-0.872
		c4.155-1.488,19.98-8.033,38.177-18.198c0.039-0.021,0.075-0.043,0.114-0.063c0.736-0.411,1.477-0.828,2.219-1.253
		c0.157-0.088,0.313-0.177,0.465-0.267c0.628-0.355,1.256-0.719,1.883-1.083c0.218-0.126,0.435-0.253,0.652-0.38
		c0.577-0.339,1.158-0.681,1.739-1.023c0.242-0.146,0.485-0.291,0.729-0.436c0.563-0.335,1.125-0.676,1.69-1.018
		c0.252-0.152,0.501-0.305,0.758-0.459c0.591-0.359,1.183-0.728,1.774-1.095c0.217-0.135,0.432-0.268,0.648-0.399
		c0.807-0.506,1.615-1.015,2.422-1.531c0.028-0.016,0.039-0.049,0.039-0.091c0.004-0.032-0.002-0.08-0.014-0.129
		c0.032-0.019,0.065-0.039,0.095-0.059c0.055-0.035,0.11-0.067,0.167-0.1c33.283,38.904,106.115,124.059,132.922,155.455
		c0.99,1.179,1.533,1.816,1.533,1.816l0.008-0.014c3.153,3.691,5.559,6.516,7.016,8.227c3.15,3.706,5.933,6.597,8.375,8.858
		c10.609,9.834,14.821,7.713,14.821,7.713s19.66-13.69,31.759-22.114C495.102,508.867,495.922,504.623,495.419,502.028z"/>
	<g clip-path="url(#SVGID_2_)">
		<path fill="#19BEC0" d="M426.165,224.829c0.982,1.41-17.617,27.333-22.553,30.575c-4.933,3.246-6.975-10.013-6.975-10.013
			s-11.365-6.855-6.975-10.021C394.052,232.21,425.182,223.415,426.165,224.829z"/>
		<path fill="#0DC3FF" d="M274.211,328.918c-10.173-14.412-11.319-13.925-11.319-13.925s-11.244-3.712-19.659,13.686
			c-0.529,2.931-0.79,7.607,5.677,16.895l1.507,2.168c6.469,9.291,10.947,10.666,13.874,11.183
			c19.24-1.854,19.504-13.578,19.504-13.578s0.931-0.963-9.057-15.502L274.211,328.918z"/>
		<g opacity="0.1">
			
				<image overflow="visible" opacity="0.75" width="419" height="485" xlink:href="92D470D7.png"  transform="matrix(1 0 0 1 84.4639 59.4639)">
			</image>
			<g>
				<path d="M494.153,499.225l-91.85-141.879l-10.978-16.953l-24.338-37.594c0.347-0.261,0.685-0.515,1.029-0.769
					c0.279-0.209,0.559-0.423,0.834-0.63c1.93-1.448,3.772-2.842,5.53-4.186c0.162-0.122,0.318-0.244,0.481-0.368
					c0.758-0.581,1.503-1.15,2.234-1.713c0.118-0.093,0.244-0.189,0.366-0.282c3.02-2.333,5.778-4.497,8.285-6.502
					c0.406-0.325,1.192-0.958,1.192-0.958l0,0c13.66-10.982,19.971-17.201,24.827-21.724c8.172-7.613,4.49-13.824,4.49-13.824
					l-3.765-6.284c0.018-0.03,0.04-0.059,0.063-0.087l0.187,0.248l-0.138-0.307c6.723-8.633,14.263-19.727,13.631-20.633
					c-0.63-0.902-13.365,2.239-23.857,5.598l-0.452-0.65l-0.073,0.05c-0.029,0.021,0.12,0.373,0.083,0.385l-5.338-6.589
					c0,0-4.498-5.521-14.475-0.496c-5.965,3.001-14.032,6.845-29.253,15.968l0,0c0,0-0.561,0.364-0.85,0.537
					c-0.226,0.136-0.454,0.291-0.683,0.429c-0.311,0.187-0.616,0.382-0.933,0.571c-0.481,0.291-0.971,0.595-1.461,0.898
					c-0.397,0.242-0.798,0.488-1.207,0.736c-0.615,0.378-1.232,0.762-1.869,1.154c-0.39,0.243-0.796,0.493-1.199,0.743
					c-0.434,0.271-0.873,0.542-1.32,0.823c-0.414,0.26-0.839,0.526-1.268,0.792c-0.458,0.292-0.937,0.591-1.408,0.89
					c-0.408,0.256-0.81,0.51-1.223,0.772c-0.854,0.54-1.728,1.095-2.621,1.664c-0.248,0.158-0.506,0.325-0.757,0.488
					c-0.598,0.384-1.197,0.768-1.813,1.162c-0.938,0.218-1.797,0.561-2.571,1.024c0.374-0.183,1.213-0.559,2.424-0.928
					c-0.075,0.044-0.152,0.097-0.225,0.146c-0.358,0.231-0.722,0.463-1.084,0.701c-0.332,0.211-0.656,0.419-0.988,0.636
					l-0.334-0.445c0.063-0.044,0.142-0.067,0.207-0.109c-0.124,0.063-0.192,0.098-0.207,0.109l-26.184-35.014l-12.089-16.17
					L191.816,65.056c0,0-3.635-7.292-15.732,1.131c-12.097,8.426-31.759,22.114-31.759,22.114s-5.422,4.578,7.27,27.179
					c9.856,17.553,76.051,136.102,105.13,188.233c-0.17,0.123-0.341,0.286-0.512,0.286h-0.002c-0.041,0-0.077,0.156-0.118,0.183
					c-6.351,4.785-12.532,9.698-18.097,14.411c-1.161,1.156-4.927,4.749-10.25,10.01c-4.982,4.789-9.017,8.965-11.819,11.972
					c-4.748,4.917-9.919,10.415-15.189,16.281c-11.374,12.217-11.488,13.154-30.436,31.241
					c-13.392-13.606-39.939-40.626-47.007-48.218c-9.572-10.271-18.66-3.337-18.66-3.337l-17.032,15.493l42.917,71.407
					c-0.015,0.018,0.16,0.301,0.142,0.312c0,0,0.037-0.026,0.051-0.035l0.789,1.352c-6.154,5.755-13.105,12.025-20.765,19.178
					c9.281-4.659,17.636-8.959,25.279-12.811l53.855,66.604c0,0,12.283-4.954,19.614-10.058c7.333-5.105,3.212-17.979,3.212-17.979
					l-29.27-62.636c29.863-15.149,34.619-17.513,50.717-24.23c1.099-0.452,2.354-0.984,3.724-1.584
					c5.278-1.889,29.385-11.936,53.271-27.205c0.051-0.03,0.049-0.113,0.022-0.22c0.087-0.051,0.175-0.107,0.264-0.158
					c33.283,38.904,106.115,124.059,132.922,155.455c0.99,1.179,1.533,1.816,1.533,1.816l0.008-0.014
					c3.153,3.691,5.559,6.516,7.016,8.227c16.794,19.74,23.136,16.49,23.136,16.49s19.662-13.692,31.76-22.114
					C499.9,505.407,494.153,499.225,494.153,499.225z"/>
			</g>
		</g>
		
			<line fill="#19BEC0" stroke="#19BEC0" stroke-width="4.234" stroke-linecap="round" stroke-miterlimit="10" x1="381.111" y1="185.073" x2="446.097" y2="278.39"/>
		<path fill="#19BEC0" d="M409.635,240.847l6.613,11.008c0,0,3.684,6.203-4.485,13.818c-8.173,7.613-20.479,20.034-65.016,51.904
			c-0.775,0.107-43.213,30.207-75.464,48.39c-10.857,5.032-28.611,13.706-37.143,17.17c-24.523,10.236-22.721,10.363-123.497,60.98
			c82.429-76.964,71.988-67.804,90.095-87.255c17.807-19.818,34.563-35.534,37.259-38.22c28.24-23.941,72.565-51.813,72.939-52.503
			c45.341-30.717,61.26-37.954,71.236-42.974c9.978-5.021,14.509,0.591,14.509,0.591l8.027,10.02L409.635,240.847z"/>
		<path fill="#19BEC0" d="M274.44,334.078c0,0,141.709,165.668,158.503,185.413c16.794,19.742,23.158,16.537,23.158,16.537
			s19.66-13.69,31.759-22.114c12.098-8.423,6.28-14.625,6.28-14.625l-142.1-219.426l-3.951-5.668L191.782,65.081
			c0,0-3.601-7.317-15.698,1.107c-12.097,8.426-31.759,22.114-31.759,22.114s-5.408,4.572,7.28,27.171
			c12.694,22.601,118.804,212.813,118.804,212.813L274.44,334.078z"/>
		<path fill="#19BEC0" d="M189.847,498.005l-56.642-70.052l-45.603-75.917l17.032-15.492c0,0,9.088-6.933,18.66,3.338
			c9.574,10.275,54.846,56.178,54.846,56.178l34.548,73.938c0,0,4.116,12.863-3.216,17.972
			C202.142,493.072,189.847,498.005,189.847,498.005z"/>
		<path fill="#19BEC0" d="M366.683,303.018c-5.977,4.165-12.473,9.214-20.039,14.631c-0.776,0.109-19.769,16.334-52.026,34.516
			c-20.439,9.956-24.534,13.231-49.059,23.467c-24.524,10.234-34.152,17.876-134.929,68.494
			c82.427-76.966,92.663-83.779,110.769-103.23c18.107-19.451,22.634-22.177,39.063-37.897
			c28.242-23.94,50.096-36.163,50.474-36.858c8.112-5.494,15.266-10.261,21.643-14.353c6.513-4.182,22.747,3.252,31.191,15.748
			C372.226,280.041,374.178,297.802,366.683,303.018z"/>
		<polygon opacity="0.1" points="412.743,245.719 409.094,237.568 402.231,230.477 407.514,238.671 		"/>
		
			<linearGradient id="SVGID_3_" gradientUnits="userSpaceOnUse" x1="-28.5049" y1="-1806.3936" x2="182.4579" y2="-1806.3936" gradientTransform="matrix(0.5715 0.8206 -0.8206 0.5715 -1197.2964 1390.9189)">
			<stop  offset="0" style="stop-color:#000000"/>
			<stop  offset="1" style="stop-color:#FFFFFF;stop-opacity:0"/>
		</linearGradient>
		<path opacity="0.1" fill="url(#SVGID_3_)" d="M426.976,225l-76.193,53.062l1.259,1.802l142.1,219.426c0,0,5.817,6.202-6.28,14.625
			c-12.099,8.424-31.759,22.114-31.759,22.114s-6.376,3.214-23.168-16.531c-13.69-16.089-110.35-129.099-145.641-170.353
			c-0.432-0.508-0.961-1.015-1.302-1.567c-5.821-9.478-10.626-17.003-10.626-17.003l-2.288,1.594L110.539,445.351l244.372,350.936
			l316.439-220.35L426.976,225z"/>
	</g>
</g>
</svg>
